<svg xmlns="http://www.w3.org/2000/svg" viewBox="0 0 256.12 124.77"><defs><style>.cls-1{fill:#21f9ab;}.cls-2{fill:#fff;}</style></defs><g id="Layer_2" data-name="Layer 2"><g id="Layer_1-2" data-name="Layer 1"><path class="cls-1" d="M62.52,56.18,56.67,44.12c.17-.31.34-.62.5-.93a20.43,20.43,0,0,0,.91-2.08,2.44,2.44,0,0,0,.1-.24,24.38,24.38,0,0,0,.89-3.09c0-.18.07-.36.1-.55a20.69,20.69,0,0,0,.34-2.86c0-.39,0-.78,0-1.18A22.17,22.17,0,0,0,49.11,14.38l-.27-.17h-23a1.78,1.78,0,0,0-.27.17A22.14,22.14,0,0,0,15.16,33.19c0,.4,0,.79,0,1.18a22.24,22.24,0,0,0,.33,2.84l.12.57c0,.13,0,.26.08.39.1.42.21.83.32,1.24s.31,1,.48,1.46a2.44,2.44,0,0,1,.1.24,20.43,20.43,0,0,0,.91,2.08c.16.31.33.62.5.93L12.18,56.18a10.93,10.93,0,0,0,6,15V65.63a4.75,4.75,0,0,1,.37-1.86c.06-.13.12-.27.19-.4a2.75,2.75,0,0,1-.19-.28,3.94,3.94,0,0,1-.22-3.9L22.84,50a22.19,22.19,0,0,0,29,0l4.47,9.21A4,4,0,0,1,52.71,65H50.87V68l4.76,1.09a1.1,1.1,0,0,1,.85,1.07v1a10.91,10.91,0,0,0,6-15Zm-15-24.79a.85.85,0,0,1-.84.84H45a.84.84,0,0,1-.83-.84V29a.83.83,0,0,0-.25-.59l-1.09-1.09a.83.83,0,0,0-.59-.25H32.48a.88.88,0,0,0-.56.21l-.29.27-.68.59-.08.07a.84.84,0,0,0-.28.63v9.92a.82.82,0,0,0,.24.59l.2.2.63.63.26.26a.84.84,0,0,0,.6.25h2.26a.85.85,0,0,0,.84-.84V38.19a.85.85,0,0,0-.84-.84.83.83,0,0,1-.84-.83v-.1a.83.83,0,0,1,.84-.84H40a.83.83,0,0,1,.84.84v.1a.83.83,0,0,1-.24.59.87.87,0,0,1-.6.24.84.84,0,0,0-.83.84v1.68a.84.84,0,0,0,.83.84h2.27a.83.83,0,0,0,.59-.25l.26-.26.64-.63.19-.2a.83.83,0,0,0,.25-.59v-2.4a.83.83,0,0,1,.83-.84h1.68a.84.84,0,0,1,.84.84v5.73a.83.83,0,0,1-.25.59l-1.11,1.12a.87.87,0,0,1-.6.24H29.19a.89.89,0,0,1-.6-.24l-.92-.93-.19-.19a.83.83,0,0,1-.25-.59V25.67a.82.82,0,0,1,.25-.59l.18-.18.63-.64.28-.28a.87.87,0,0,1,.59-.24H45.6a.85.85,0,0,1,.59.24l.28.28.64.64.17.18a.82.82,0,0,1,.25.59Zm-6.71-.11v.1a.83.83,0,0,1-.84.84h-5.2a.83.83,0,0,1-.84-.84v-.1a.83.83,0,0,1,.84-.84H40A.83.83,0,0,1,40.82,31.28Z"/><path class="cls-1" d="M55.63,69.11,50.87,68l-1.1-.26-1.11-.25L43.41,66.3l-2.21-.51-2.05-.47a1.11,1.11,0,0,0-.85.16,1.07,1.07,0,0,0-.48.71,12.09,12.09,0,0,0,0,5,7.26,7.26,0,0,0,.27.94,7.75,7.75,0,0,0,.59,1.27,7.11,7.11,0,0,0,1.77,2,7.86,7.86,0,0,0,1,.66,7.61,7.61,0,0,0,1,.47,10.8,10.8,0,0,0,2.7.74,12.28,12.28,0,0,0-6.76,3.8c-2.12-1-7.89-3.09-13,.47a1.11,1.11,0,1,0,1.27,1.81A9.42,9.42,0,0,1,34.13,82a15.19,15.19,0,0,1,2.78.86A22.52,22.52,0,0,0,33.71,93H31.2A10.78,10.78,0,0,1,20.43,82.26V77.32a4.83,4.83,0,0,1-2.21-4.06v9a13,13,0,0,0,6.64,11.33V116l2.22.67v-8.75h0V94.57a12.87,12.87,0,0,0,4.13.68h2.34c-.13,2.59,0,4.42,0,4.5a1.12,1.12,0,0,0,1.11,1h.06a1.11,1.11,0,0,0,1-1.17s-.1-1.84,0-4.38H43.5a12.93,12.93,0,0,0,4.14-.68v12.12h0v9.92l2.22-.67v-9.25h0V93.59a13,13,0,0,0,6.63-11.33V70.18A1.1,1.1,0,0,0,55.63,69.11ZM54.27,82.26A10.78,10.78,0,0,1,43.5,93H35.93c.49-4.59,1.79-7.72,3.46-9.81l.08-.1a10.52,10.52,0,0,1,7.41-3.86,1.11,1.11,0,0,0,1-1.1V76.32a1.13,1.13,0,0,0-.34-.8,1.12,1.12,0,0,0-.81-.31,9.06,9.06,0,0,1-4.24-1,5.09,5.09,0,0,1-2.37-2.78,8.12,8.12,0,0,1-.31-3.64l14.45,3.32Z"/><path class="cls-1" d="M49.46,59.68A4.78,4.78,0,0,0,46,58.26,4.84,4.84,0,0,0,42.31,60a3.49,3.49,0,0,0-.32-.35,4.78,4.78,0,0,0-3.42-1.42A4.85,4.85,0,0,0,34.84,60c-.1-.12-.2-.23-.31-.34a4.8,4.8,0,0,0-3.43-1.42,4.86,4.86,0,0,0-4.74,3.86,4.84,4.84,0,0,0-7.58,1.27c-.07.13-.13.27-.19.4a4.75,4.75,0,0,0-.37,1.86v7.63a4.83,4.83,0,0,0,2.21,4.06,4.75,4.75,0,0,0,2.63.78,4.82,4.82,0,0,0,3.92-2,4.84,4.84,0,0,0,7.86.55,4.84,4.84,0,0,0,7.52-.07,7.61,7.61,0,0,1-1-.47,7.86,7.86,0,0,1-1-.66,2.63,2.63,0,0,1-4.47-1.88v-.14h2.7a7.75,7.75,0,0,1-.59-1.27,7.26,7.26,0,0,1-.27-.94H35.94V63.08a2.64,2.64,0,0,1,2.63-2.63,2.63,2.63,0,0,1,2.63,2.63v2.71l2.21.51V63.08A2.64,2.64,0,0,1,46,60.47a2.57,2.57,0,0,1,1.85.77,2.61,2.61,0,0,1,.77,1.86v4.41l1.11.25,1.1.26V63.1A4.81,4.81,0,0,0,49.46,59.68ZM23.06,75.89a2.64,2.64,0,0,1-2.61-2.31.91.91,0,0,1,0-.17h5.24A2.63,2.63,0,0,1,23.06,75.89Zm2.62-4.69H20.43V65.63a2.59,2.59,0,0,1,.2-1,2.71,2.71,0,0,1,.91-1.14A2.61,2.61,0,0,1,23.06,63a2.64,2.64,0,0,1,2.58,2.14,2.52,2.52,0,0,1,0,.48Zm8,2.35a2.63,2.63,0,0,1-5.25,0v-.14h5.25Zm0-2.35H28.48V63.08a2.63,2.63,0,0,1,2.62-2.63,2.63,2.63,0,0,1,2.63,2.63Z"/><path class="cls-1" d="M41.41,110.59a11.71,11.71,0,0,1-.88,4.44,12,12,0,0,1-1.19,2.21,14,14,0,0,1-.87,1.11,7.35,7.35,0,0,1-.67.71l-.45-14.2-.45,14.2a7.35,7.35,0,0,1-.67-.71,11.88,11.88,0,0,1-.86-1.11,11.45,11.45,0,0,1-1.2-2.21,11.71,11.71,0,0,1-.88-4.44,11.72,11.72,0,0,1,2.07-6.65,13.35,13.35,0,0,1,.86-1.11,9.92,9.92,0,0,1,1.13-1.1,9.92,9.92,0,0,1,1.13,1.1,13.35,13.35,0,0,1,.86,1.11,11.72,11.72,0,0,1,2.07,6.65Z"/><path class="cls-1" d="M38,124.21a.62.62,0,0,1-1.23,0v0l.16-5.15c.14.13.29.27.45.4.16-.13.31-.27.45-.4Z"/><path class="cls-1" d="M21.93,116.76a2,2,0,0,0-1.44.78c-.09-.36-.17-.73-.25-1.1a.3.3,0,0,1,.43-.33l.88.46Z"/><path class="cls-1" d="M17,117.09a.26.26,0,0,0,.14.21l.9.58.93.53a.29.29,0,0,0,.44-.31c-.2-1-.39-1.88-.51-2.84a.28.28,0,0,0-.13-.2l-.83-.54-.8-.57a.3.3,0,0,0-.47.27A28.35,28.35,0,0,0,17,117.09Z"/><path class="cls-1" d="M13.23,114.27a.36.36,0,0,0,.11.23c.27.24.56.45.83.68l.85.66a.3.3,0,0,0,.48-.26c-.09-1-.13-1.94-.15-2.88a.32.32,0,0,0-.1-.22l-.75-.64-.37-.33-.36-.34a.3.3,0,0,0-.5.21C13.21,112.34,13.21,113.29,13.23,114.27Z"/><path class="cls-1" d="M9.84,111a.33.33,0,0,0,.09.24c.49.51,1,1,1.5,1.52a.29.29,0,0,0,.5-.19c0-.49,0-1,.08-1.45s.09-1,.14-1.42a.27.27,0,0,0-.08-.23l-.34-.36-.32-.38-.65-.74a.3.3,0,0,0-.52.14C10.08,109.07,9.94,110,9.84,111Z"/><path class="cls-1" d="M6.9,107.33a.31.31,0,0,0,0,.25c.4.59.85,1.15,1.29,1.71a.3.3,0,0,0,.53-.13c.08-.48.17-1,.26-1.43s.19-.93.31-1.39a.29.29,0,0,0,0-.24l-.57-.81c-.19-.27-.36-.55-.54-.83a.31.31,0,0,0-.54.08C7.37,105.45,7.1,106.39,6.9,107.33Z"/><path class="cls-1" d="M4.43,103.32a.3.3,0,0,0,0,.26c.16.31.35.62.52.93s.35.62.54.92a.3.3,0,0,0,.55-.06c.13-.46.28-.93.44-1.39s.32-.9.48-1.34a.29.29,0,0,0,0-.24l-.45-.88c-.15-.29-.31-.58-.44-.88a.3.3,0,0,0-.54,0l-.3.65L5,102C4.78,102.41,4.6,102.86,4.43,103.32Z"/><path class="cls-1" d="M2.49,99a.31.31,0,0,0,0,.25l.39,1c.14.33.29.65.44,1a.29.29,0,0,0,.54,0l.6-1.31c.21-.43.44-.86.66-1.27a.29.29,0,0,0,0-.24c-.26-.61-.45-1.24-.67-1.87a.3.3,0,0,0-.54,0c-.24.4-.49.81-.73,1.23S2.71,98.6,2.49,99Z"/><path class="cls-1" d="M1.12,94.52a.34.34,0,0,0-.05.26l.12.52.15.51.29,1a.3.3,0,0,0,.54.08c.51-.84,1-1.64,1.58-2.41a.3.3,0,0,0,0-.24l-.22-1c0-.16-.08-.32-.11-.48l-.09-.49a.3.3,0,0,0-.52-.13c-.3.37-.61.75-.9,1.13Z"/><path class="cls-1" d="M.32,89.88a.33.33,0,0,0-.08.25c.1.7.17,1.41.31,2.11a.29.29,0,0,0,.52.15c.31-.39.6-.76.92-1.12s.64-.72,1-1.07A.27.27,0,0,0,3,90L3,89.48c0-.16,0-.33,0-.49l-.08-1a.3.3,0,0,0-.5-.19C1.66,88.46,1,89.16.32,89.88Z"/><path class="cls-1" d="M.1,85.2a.33.33,0,0,0-.1.23v1l0,1.07a.3.3,0,0,0,.5.21c.71-.69,1.42-1.33,2.13-1.94a.29.29,0,0,0,.1-.23v-2a.3.3,0,0,0-.49-.23Z"/><path class="cls-1" d="M.1,80.65a.33.33,0,0,0-.1.23v2.06a.3.3,0,0,0,.49.22l2.18-1.89a.29.29,0,0,0,.1-.23V79a.3.3,0,0,0-.49-.23Z"/><path class="cls-1" d="M.1,76.1a.33.33,0,0,0-.1.23v2.06a.3.3,0,0,0,.49.22l2.18-1.89a.29.29,0,0,0,.1-.23v-2a.3.3,0,0,0-.49-.23Z"/><path class="cls-1" d="M.1,71.55a.33.33,0,0,0-.1.23v2.06a.3.3,0,0,0,.49.22l2.18-1.89a.29.29,0,0,0,.1-.23V69.88a.3.3,0,0,0-.49-.22Z"/><path class="cls-1" d="M.1,67a.33.33,0,0,0-.1.23v2.06a.3.3,0,0,0,.49.22l2.18-1.89a.29.29,0,0,0,.1-.23V65.33a.3.3,0,0,0-.49-.22Z"/><path class="cls-1" d="M.1,62.45a.33.33,0,0,0-.1.23v2.06A.3.3,0,0,0,.49,65l2.18-1.89a.29.29,0,0,0,.1-.23V60.78a.3.3,0,0,0-.49-.22Z"/><path class="cls-1" d="M.1,57.9a.33.33,0,0,0-.1.23v2.06a.3.3,0,0,0,.49.22l2.18-1.89a.29.29,0,0,0,.1-.23V56.23A.3.3,0,0,0,2.28,56Z"/><path class="cls-1" d="M.1,53.35a.33.33,0,0,0-.1.23v2.06a.3.3,0,0,0,.49.22L2.67,54a.29.29,0,0,0,.1-.23V51.68a.3.3,0,0,0-.49-.22Z"/><path class="cls-1" d="M.1,48.8A.33.33,0,0,0,0,49v2.06a.3.3,0,0,0,.49.22l2.18-1.89a.29.29,0,0,0,.1-.23V47.13a.3.3,0,0,0-.49-.22Z"/><path class="cls-1" d="M.1,44.25a.33.33,0,0,0-.1.23v2.06a.3.3,0,0,0,.49.22l2.18-1.89a.29.29,0,0,0,.1-.23V42.58a.3.3,0,0,0-.49-.22Z"/><path class="cls-1" d="M.1,39.7a.33.33,0,0,0-.1.23v2a.3.3,0,0,0,.49.23l2.18-1.89a.29.29,0,0,0,.1-.23V38a.3.3,0,0,0-.49-.22Z"/><path class="cls-1" d="M.18,35.07a.31.31,0,0,0-.12.23C0,36,0,36.73,0,37.43a.3.3,0,0,0,.49.23C1.22,37,2,36.4,2.71,35.82a.26.26,0,0,0,.11-.21c.05-.66.09-1.32.16-2a.3.3,0,0,0-.47-.27c-.4.26-.79.54-1.17.82Z"/><path class="cls-1" d="M.76,30.4a.31.31,0,0,0-.14.21L.43,31.67.29,32.73A.3.3,0,0,0,.76,33c.8-.56,1.58-1.08,2.42-1.56a.3.3,0,0,0,.14-.19c.06-.33.11-.65.18-1l.22-1A.3.3,0,0,0,3.29,29C2.45,29.43,1.57,29.89.76,30.4Z"/><path class="cls-1" d="M1.92,25.84a.29.29,0,0,0-.17.19c-.21.68-.4,1.37-.59,2a.3.3,0,0,0,.43.35c.85-.45,1.74-.86,2.59-1.23A.28.28,0,0,0,4.34,27l.32-.94c.11-.31.21-.63.33-.93a.3.3,0,0,0-.38-.38C3.7,25.08,2.83,25.44,1.92,25.84Z"/><path class="cls-1" d="M3.66,21.46a.32.32,0,0,0-.19.17L3,22.6c-.15.33-.27.66-.4,1A.3.3,0,0,0,3,24l1.36-.48c.46-.15.92-.28,1.38-.41a.29.29,0,0,0,.18-.16c.26-.61.58-1.18.87-1.77a.3.3,0,0,0-.33-.43C5.54,21,4.59,21.17,3.66,21.46Z"/><path class="cls-1" d="M5.94,17.34a.28.28,0,0,0-.21.14l-.29.45-.27.46-.53.93a.29.29,0,0,0,.31.44c1-.21,1.9-.4,2.83-.54A.3.3,0,0,0,8,19.09c.36-.55.7-1.11,1.1-1.64A.31.31,0,0,0,8.81,17l-1.44.14Z"/><path class="cls-1" d="M8.71,13.53a.33.33,0,0,0-.23.12l-.66.84c-.22.28-.44.56-.64.85a.3.3,0,0,0,.26.48c1-.11,1.94-.15,2.88-.18a.26.26,0,0,0,.21-.11c.2-.26.43-.5.64-.75l.65-.75a.3.3,0,0,0-.21-.49c-.49,0-.95,0-1.44,0Z"/><path class="cls-1" d="M12,10.11a.36.36,0,0,0-.24.09l-.77.74-.74.77a.3.3,0,0,0,.2.51c1,0,1.92.07,2.87.18a.27.27,0,0,0,.23-.07c.24-.23.47-.46.72-.68L15,11a.3.3,0,0,0-.15-.52l-1.42-.21-.73-.09Z"/><path class="cls-1" d="M15.59,7.13a.31.31,0,0,0-.25,0c-.29.2-.57.42-.85.64l-.84.66a.3.3,0,0,0,.13.53c1,.15,1.92.34,2.83.54a.26.26,0,0,0,.24,0l.8-.57.41-.29.41-.26a.3.3,0,0,0-.08-.54c-.45-.13-.92-.28-1.39-.39S16.07,7.23,15.59,7.13Z"/><path class="cls-1" d="M19.57,4.61a.28.28,0,0,0-.25,0l-.93.53-.46.27-.45.29a.3.3,0,0,0,.07.54c.47.13.92.26,1.38.42s.91.31,1.35.47a.29.29,0,0,0,.24,0c.29-.18.58-.32.87-.47l.88-.45a.3.3,0,0,0,0-.54C21.39,5.3,20.5,5,19.57,4.61Z"/><path class="cls-1" d="M23.85,2.64a.3.3,0,0,0-.26,0c-.33.13-.67.25-1,.4l-1,.44a.29.29,0,0,0,0,.54l1.33.6c.43.2.85.41,1.28.64a.29.29,0,0,0,.24,0l.92-.36.93-.32A.3.3,0,0,0,26.37,4C25.56,3.55,24.71,3.06,23.85,2.64Z"/><path class="cls-1" d="M28.34,1.21a.34.34,0,0,0-.26-.05c-.68.19-1.37.38-2,.59a.29.29,0,0,0-.07.54l.62.37.61.39c.41.26.8.53,1.19.8a.27.27,0,0,0,.23,0c.65-.16,1.29-.31,1.93-.44a.3.3,0,0,0,.12-.53c-.37-.3-.75-.59-1.13-.87S28.74,1.48,28.34,1.21Z"/><path class="cls-1" d="M33,.37a.32.32,0,0,0-.24-.08L31.66.43,30.61.62a.29.29,0,0,0-.14.52c.77.6,1.51,1.2,2.21,1.85a.29.29,0,0,0,.23.08c.33,0,.65-.09,1-.12l1-.08a.3.3,0,0,0,.18-.51C34.4,1.69,33.7,1,33,.37Z"/><path class="cls-1" d="M37.67.11A.3.3,0,0,0,37.44,0C36.73,0,36,0,35.3.06a.3.3,0,0,0-.2.51c.34.33.68.69,1,1s.65.71.95,1.07a.27.27,0,0,0,.22.09c.66,0,1.32,0,2,.06a.3.3,0,0,0,.25-.48c-.29-.39-.58-.76-.89-1.13S38,.48,37.67.11Z"/><path class="cls-1" d="M42.37.45a.33.33,0,0,0-.22-.14L41.09.18,40,.1a.3.3,0,0,0-.26.48c.59.78,1.16,1.52,1.67,2.34a.3.3,0,0,0,.21.13l1,.12,1,.18a.31.31,0,0,0,.31-.45C43.43,2.08,42.92,1.23,42.37.45Z"/><path class="cls-1" d="M47,1.37a.37.37,0,0,0-.2-.17C46.09,1,45.4.87,44.7.73a.29.29,0,0,0-.32.44c.25.41.48.83.71,1.26s.45.85.66,1.27a.27.27,0,0,0,.18.15c.64.18,1.28.35,1.9.54A.29.29,0,0,0,48.19,4l-.27-.67-.3-.65C47.42,2.24,47.21,1.81,47,1.37Z"/><path class="cls-1" d="M51.45,2.87a.32.32,0,0,0-.18-.18l-1-.39c-.33-.13-.67-.23-1-.35a.29.29,0,0,0-.37.39c.38.9.73,1.78,1,2.69a.29.29,0,0,0,.17.17c.3.13.61.24.91.38l.9.4a.3.3,0,0,0,.41-.35c-.12-.46-.26-.92-.4-1.38S51.62,3.32,51.45,2.87Z"/><path class="cls-1" d="M55.68,4.93a.29.29,0,0,0-.15-.21c-.3-.18-.62-.34-.94-.5l-1-.49a.3.3,0,0,0-.43.34c.27.94.5,1.88.69,2.8a.35.35,0,0,0,.14.2l.86.49.43.25.41.27a.3.3,0,0,0,.45-.3c-.06-.47-.13-1-.22-1.43S55.79,5.41,55.68,4.93Z"/><path class="cls-1" d="M59.63,7.5a.29.29,0,0,0-.13-.22l-.87-.62-.44-.31-.45-.29a.3.3,0,0,0-.46.29c.07.48.15,1,.2,1.43s.09,1,.13,1.43a.3.3,0,0,0,.12.21,9,9,0,0,1,.78.6l.78.61a.3.3,0,0,0,.48-.24C59.76,9.44,59.71,8.48,59.63,7.5Z"/><path class="cls-1" d="M63.21,10.56a.28.28,0,0,0-.1-.24c-.26-.24-.51-.5-.78-.73l-.8-.7a.3.3,0,0,0-.5.22c0,.49,0,1,0,1.45v.71L61,12a.27.27,0,0,0,.08.23l.72.68.68.72a.3.3,0,0,0,.51-.18C63.1,12.5,63.19,11.52,63.21,10.56Z"/><path class="cls-1" d="M66.39,14a.32.32,0,0,0-.07-.25c-.21-.28-.46-.54-.69-.81s-.46-.55-.7-.81a.3.3,0,0,0-.52.17c0,.47-.11,1-.18,1.44s-.14.94-.22,1.41a.32.32,0,0,0,.06.23l.62.78c.2.26.41.51.59.79a.3.3,0,0,0,.53-.12C66.05,15.93,66.22,15,66.39,14Z"/><path class="cls-1" d="M69.11,17.88a.31.31,0,0,0,0-.25c-.39-.6-.76-1.21-1.19-1.78a.29.29,0,0,0-.53.09c-.11.48-.23.94-.34,1.4s-.27.93-.41,1.38a.26.26,0,0,0,0,.24l.26.42c.09.14.17.28.25.42l.5.86a.3.3,0,0,0,.54-.05C68.5,19.73,68.83,18.81,69.11,17.88Z"/><path class="cls-1" d="M71.31,22a.34.34,0,0,0,0-.26c-.28-.65-.62-1.28-.94-1.91a.29.29,0,0,0-.54,0c-.35.92-.7,1.8-1.1,2.67a.25.25,0,0,0,0,.24l.4.9c.14.3.25.61.38.92a.3.3,0,0,0,.54,0l.66-1.28C70.91,22.92,71.11,22.49,71.31,22Z"/><path class="cls-1" d="M73,26.45a.34.34,0,0,0,0-.26l-.35-1c-.11-.34-.22-.68-.36-1a.29.29,0,0,0-.54,0c-.43.86-.94,1.7-1.43,2.5a.29.29,0,0,0,0,.24c.19.63.36,1.26.54,1.9a.3.3,0,0,0,.53.09C72,28.09,72.45,27.29,73,26.45Z"/><path class="cls-1" d="M74.05,31a.28.28,0,0,0,.06-.25c-.06-.35-.12-.7-.19-1.05l-.24-1a.29.29,0,0,0-.53-.11c-.57.8-1.11,1.56-1.73,2.3a.24.24,0,0,0-.06.23l.17,1,.12,1a.3.3,0,0,0,.52.15C72.81,32.53,73.47,31.79,74.05,31Z"/><path class="cls-1" d="M74.56,35.71a.3.3,0,0,0,.09-.24c-.05-.71-.09-1.42-.16-2.13a.3.3,0,0,0-.52-.17q-.48.54-1,1c-.34.35-.68.68-1,1a.31.31,0,0,0-.09.22c0,.66,0,1.32.06,2a.3.3,0,0,0,.49.23C73.15,37,73.85,36.4,74.56,35.71Z"/><path class="cls-1" d="M74.6,40.32a.33.33,0,0,0,.1-.23V38a.3.3,0,0,0-.49-.22L72,39.7a.29.29,0,0,0-.1.23v2a.3.3,0,0,0,.49.23Z"/><path class="cls-1" d="M74.6,44.87a.33.33,0,0,0,.1-.23V42.58a.3.3,0,0,0-.49-.22L72,44.25a.29.29,0,0,0-.1.23v2.05a.3.3,0,0,0,.49.23Z"/><path class="cls-1" d="M74.6,49.42a.33.33,0,0,0,.1-.23V47.13a.3.3,0,0,0-.49-.22L72,48.8a.29.29,0,0,0-.1.23v2.06a.3.3,0,0,0,.49.22Z"/><path class="cls-1" d="M74.6,54a.33.33,0,0,0,.1-.23V51.68a.3.3,0,0,0-.49-.22L72,53.35a.29.29,0,0,0-.1.23v2.06a.3.3,0,0,0,.49.22Z"/><path class="cls-1" d="M74.6,58.52a.33.33,0,0,0,.1-.23V56.23a.3.3,0,0,0-.49-.22L72,57.9a.29.29,0,0,0-.1.23v2.06a.3.3,0,0,0,.49.22Z"/><path class="cls-1" d="M74.6,63.07a.33.33,0,0,0,.1-.23V60.78a.3.3,0,0,0-.49-.22L72,62.45a.29.29,0,0,0-.1.23v2.06a.3.3,0,0,0,.49.22Z"/><path class="cls-1" d="M74.6,67.62a.33.33,0,0,0,.1-.23V65.33a.3.3,0,0,0-.49-.22L72,67a.29.29,0,0,0-.1.23v2.06a.3.3,0,0,0,.49.22Z"/><path class="cls-1" d="M74.6,72.17a.33.33,0,0,0,.1-.23V69.88a.3.3,0,0,0-.49-.22L72,71.55a.29.29,0,0,0-.1.23v2.06a.3.3,0,0,0,.49.22Z"/><path class="cls-1" d="M74.6,76.72a.33.33,0,0,0,.1-.23v-2a.3.3,0,0,0-.49-.23L72,76.1a.29.29,0,0,0-.1.23v2.06a.3.3,0,0,0,.49.22Z"/><path class="cls-1" d="M74.6,81.27a.33.33,0,0,0,.1-.23V79a.3.3,0,0,0-.49-.23L72,80.65a.29.29,0,0,0-.1.23v2.06a.3.3,0,0,0,.49.22Z"/><path class="cls-1" d="M74.6,85.82a.33.33,0,0,0,.1-.23v-2a.3.3,0,0,0-.49-.23L72,85.2a.29.29,0,0,0-.1.23v.51l0,.5,0,1a.31.31,0,0,0,.49.24C73.12,87.09,73.86,86.47,74.6,85.82Z"/><path class="cls-1" d="M74.3,90.52a.33.33,0,0,0,.14-.22l.06-.53c0-.18,0-.36,0-.54l.08-1.06a.3.3,0,0,0-.48-.26c-.78.6-1.54,1.17-2.32,1.7a.3.3,0,0,0-.13.2c-.09.66-.15,1.32-.28,2a.3.3,0,0,0,.45.3c.41-.24.83-.48,1.23-.74S73.9,90.8,74.3,90.52Z"/><path class="cls-1" d="M73.44,95.15a.3.3,0,0,0,.15-.21l.24-1,.12-.52.1-.53a.3.3,0,0,0-.45-.32c-.42.26-.82.5-1.24.73s-.85.46-1.28.67a.27.27,0,0,0-.14.19l-.12.48-.13.48-.27,1a.29.29,0,0,0,.4.35C71.69,96,72.56,95.6,73.44,95.15Z"/><path class="cls-1" d="M72,99.62a.32.32,0,0,0,.18-.18c.27-.65.49-1.33.72-2a.3.3,0,0,0-.4-.37c-.45.2-.89.38-1.34.56s-.88.35-1.33.5a.3.3,0,0,0-.18.17l-.36.92c-.12.31-.27.6-.4.9a.3.3,0,0,0,.36.41l1.38-.42C71.07,100,71.52,99.79,72,99.62Z"/><path class="cls-1" d="M70,103.88a.29.29,0,0,0,.21-.15l.49-1c.15-.32.33-.63.47-1a.3.3,0,0,0-.35-.42l-.69.21-.71.18c-.46.12-.93.23-1.39.33a.3.3,0,0,0-.19.14c-.15.3-.32.58-.48.86s-.33.58-.51.86a.3.3,0,0,0,.31.44q.7-.09,1.41-.24Z"/><path class="cls-1" d="M67.43,107.85a.29.29,0,0,0,.22-.13l.62-.87c.2-.29.39-.6.58-.9a.29.29,0,0,0-.29-.46c-1,.16-1.9.29-2.86.36a.27.27,0,0,0-.2.12c-.38.55-.79,1.06-1.2,1.58a.3.3,0,0,0,.25.48L66,108C66.47,107.94,67,107.91,67.43,107.85Z"/><path class="cls-1" d="M64.42,111.47a.33.33,0,0,0,.24-.1L65,111l.35-.4.7-.81a.29.29,0,0,0-.23-.49c-1,0-1.94,0-2.88,0a.31.31,0,0,0-.22.09c-.46.48-.9,1-1.39,1.41a.3.3,0,0,0,.18.51c.48,0,1,.1,1.44.13S63.93,111.46,64.42,111.47Z"/><path class="cls-1" d="M61,114.69a.32.32,0,0,0,.25-.07l.81-.7.4-.35.39-.37a.3.3,0,0,0-.17-.52c-1-.07-1.93-.21-2.86-.36a.28.28,0,0,0-.23.06c-.24.22-.51.42-.77.62l-.77.61a.3.3,0,0,0,.11.53C59.07,114.36,60,114.53,61,114.69Z"/><path class="cls-1" d="M57.16,117.44a.32.32,0,0,0,.25,0l.9-.58.87-.62a.3.3,0,0,0-.1-.54c-1-.21-1.87-.43-2.79-.72a.33.33,0,0,0-.24,0l-.83.53-.86.5a.3.3,0,0,0,0,.54C55.3,116.86,56.23,117.19,57.16,117.44Z"/><path class="cls-1" d="M55.57,118.72l-1,.49a2.12,2.12,0,0,0-.27-1.48l1.18.44A.3.3,0,0,1,55.57,118.72Z"/><path class="cls-1" d="M33.14,122.14a2.05,2.05,0,0,1-2.57,1.39l-9-2.73a2.07,2.07,0,0,1,.41-4h.18a2.08,2.08,0,0,1,.6.09l9.05,2.73A2.06,2.06,0,0,1,33.14,122.14Z"/><path class="cls-1" d="M54.62,119.21a2,2,0,0,1-1.43,1.59l-9.06,2.73a2.07,2.07,0,0,1-1.19-4L52,116.84a2.07,2.07,0,0,1,2.36.89,2.12,2.12,0,0,1,.27,1.48Z"/><path class="cls-2" d="M116.91,26.59a14.64,14.64,0,0,0-8.24-2.07c-6.84,0-12.23,5.06-12.23,12.86,0,8,5.1,13.11,12.67,13.11A13.61,13.61,0,0,0,117,48v4.1c-2.07,1.4-5.25,2-8.19,2-9.59,0-16.48-6.26-16.48-16.77,0-9.92,7.13-16.52,16.33-16.52a16.94,16.94,0,0,1,8.24,1.73Z"/><path class="cls-2" d="M142.55,21.29h3.9V41.43c0,8.53-4.58,12.72-11.95,12.72S122.7,50,122.7,41.82V21.29h3.9V41.77c0,6.31,3.42,8.72,7.9,8.72,4.72,0,8.05-2.36,8.05-9Z"/><path class="cls-2" d="M170.73,53.77,162.78,41h-5.06V53.77h-3.9V21.29H162c7.67,0,11.47,3.86,11.47,10-.09,4.49-2.41,7.76-6.55,9.06l8.53,13.45Zm-13-16.15h4.92c4.62,0,6.84-2.89,6.84-6.45,0-4.24-2.36-6.51-7.27-6.51h-4.49Z"/><path class="cls-2" d="M190,21.29c6.65,0,11,3.28,11,8.53a7.3,7.3,0,0,1-5.59,7.42A7.51,7.51,0,0,1,202,45.09c0,5-3.38,8.68-9.88,8.68H180.23V21.29ZM184.13,35.7h5.2c5.54,0,7.66-2.7,7.66-5.88,0-2.8-2.12-5.2-7-5.2h-5.88Zm7.37,14.74c4.05,0,6.41-1.93,6.41-5.59S195.4,39,190.78,39h-6.65V50.44Z"/><path class="cls-1" d="M112.34,96.54H100.05l-2.31,7.38H91.38l11-32.48h7.86l11,32.48h-6.55Zm-1.55-5-.43-1.44C106.7,78.38,106.22,76,106.22,76s-.44,2.41-4.15,14.21l-.43,1.4Z"/><path class="cls-1" d="M136,71.44c7.42,0,12.1,4.53,12.1,10.65,0,6.79-5.26,10.79-11.95,10.79H132v11h-6.07V71.44ZM135.37,88c4.58,0,6.6-2.46,6.6-5.88s-2.07-5.69-6.46-5.69H132V88Z"/><path class="cls-1" d="M162.83,71.44c7.42,0,12.1,4.53,12.1,10.65,0,6.79-5.26,10.79-12,10.79h-4.24v11h-6.07V71.44ZM162.16,88c4.58,0,6.6-2.46,6.6-5.88s-2.07-5.69-6.46-5.69h-3.56V88Z"/><path class="cls-1" d="M198.83,99v5H179.46V71.44h19.17v5h-13v8.82h11.61v4.92H185.58V99Z"/><path class="cls-1" d="M223.83,96.54H211.55l-2.32,7.38h-6.36l11-32.48h7.85l11,32.48h-6.55Zm-1.54-5-.43-1.44C218.2,78.38,217.71,76,217.71,76s-.43,2.41-4.14,14.21l-.43,1.4Z"/><path class="cls-1" d="M256.12,98.52v5.4H237.37V71.44h6.07V98.52Z"/></g></g></svg>